<svg width="94" height="94" viewBox="0 0 94 94" fill="none" xmlns="http://www.w3.org/2000/svg">
<g clip-path="url(#clip0_238_2)">
<path d="M47 0C51.3145 0 55.4759 0.550781 59.4844 1.65234C63.4928 2.75391 67.2412 4.32975 70.7295 6.37988C74.2178 8.43001 77.3848 10.8779 80.2305 13.7236C83.0762 16.5693 85.5241 19.7516 87.5742 23.2705C89.6243 26.7894 91.2002 30.5378 92.3018 34.5156C93.4033 38.4935 93.9694 42.6549 94 47C94 51.3145 93.4492 55.4759 92.3477 59.4844C91.2461 63.4928 89.6702 67.2412 87.6201 70.7295C85.57 74.2178 83.1221 77.3848 80.2764 80.2305C77.4307 83.0762 74.2484 85.5241 70.7295 87.5742C67.2106 89.6243 63.4622 91.2002 59.4844 92.3018C55.5065 93.4033 51.3451 93.9694 47 94C45.3783 94 43.8636 93.694 42.4561 93.082C41.0485 92.4701 39.8092 91.6286 38.7383 90.5576C37.6673 89.4867 36.8258 88.2474 36.2139 86.8398C35.6019 85.4323 35.2806 83.9023 35.25 82.25C35.25 80.7507 35.3877 79.4502 35.6631 78.3486C35.9385 77.2471 36.3057 76.222 36.7646 75.2734C37.2236 74.3249 37.6979 73.4681 38.1875 72.7031C38.6771 71.9382 39.1514 71.1426 39.6104 70.3164C40.0693 69.4902 40.4212 68.6335 40.666 67.7461C40.9108 66.8587 41.0638 65.8184 41.125 64.625C41.125 63.0339 40.819 61.5192 40.207 60.0811C39.5951 58.6429 38.7536 57.4036 37.6826 56.3633C36.6117 55.3229 35.3571 54.4814 33.9189 53.8389C32.4808 53.1963 30.9661 52.875 29.375 52.875C28.2122 52.875 27.1872 53.0127 26.2998 53.2881C25.4124 53.5635 24.5557 53.9307 23.7295 54.3896C22.9033 54.8486 22.0924 55.3229 21.2969 55.8125C20.5013 56.3021 19.6445 56.7764 18.7266 57.2354C17.8086 57.6943 16.7835 58.0462 15.6514 58.291C14.5192 58.5358 13.2188 58.6888 11.75 58.75C10.1283 58.75 8.61361 58.444 7.20605 57.832C5.7985 57.2201 4.55924 56.3786 3.48828 55.3076C2.41732 54.2367 1.57585 52.9974 0.963867 51.5898C0.351888 50.1823 0.030599 48.6523 0 47C0 42.6855 0.550781 38.5241 1.65234 34.5156C2.75391 30.5072 4.32975 26.7588 6.37988 23.2705C8.43001 19.7822 10.8779 16.6152 13.7236 13.7695C16.5693 10.9238 19.7516 8.47591 23.2705 6.42578C26.7894 4.37565 30.5225 2.7998 34.4697 1.69824C38.417 0.59668 42.5938 0.030599 47 0ZM47 88.125C50.7637 88.125 54.3896 87.6354 57.8779 86.6562C61.3662 85.6771 64.6403 84.3001 67.7002 82.5254C70.7601 80.7507 73.5446 78.5934 76.0537 76.0537C78.5628 73.514 80.7048 70.7448 82.4795 67.7461C84.2542 64.7474 85.6465 61.4733 86.6562 57.9238C87.666 54.3743 88.1556 50.7331 88.125 47C88.125 43.2363 87.6354 39.6104 86.6562 36.1221C85.6771 32.6338 84.3001 29.3597 82.5254 26.2998C80.7507 23.2399 78.5934 20.4554 76.0537 17.9463C73.514 15.4372 70.7448 13.2952 67.7461 11.5205C64.7474 9.74577 61.4733 8.35352 57.9238 7.34375C54.3743 6.33398 50.7331 5.8444 47 5.875C43.2363 5.875 39.6104 6.36458 36.1221 7.34375C32.6338 8.32292 29.3597 9.69987 26.2998 11.4746C23.2399 13.2493 20.4554 15.4066 17.9463 17.9463C15.4372 20.486 13.2952 23.2552 11.5205 26.2539C9.74577 29.2526 8.35352 32.5267 7.34375 36.0762C6.33398 39.6257 5.8444 43.2669 5.875 47C5.875 47.8262 6.02799 48.5911 6.33398 49.2949C6.63997 49.9987 7.05306 50.6107 7.57324 51.1309C8.09342 51.651 8.7207 52.0794 9.45508 52.416C10.1895 52.7526 10.9544 52.9056 11.75 52.875C12.9128 52.875 13.9378 52.7373 14.8252 52.4619C15.7126 52.1865 16.5693 51.8193 17.3955 51.3604C18.2217 50.9014 19.0173 50.4271 19.7822 49.9375C20.5472 49.4479 21.3887 48.9736 22.3066 48.5146C23.2246 48.0557 24.2497 47.7038 25.3818 47.459C26.514 47.2142 27.8451 47.0612 29.375 47C31.8229 47 34.1178 47.459 36.2598 48.377C38.4017 49.2949 40.2682 50.5495 41.8594 52.1406C43.4505 53.7318 44.7051 55.5983 45.623 57.7402C46.541 59.8822 47 62.1771 47 64.625C47 66.1243 46.8623 67.4401 46.5869 68.5723C46.3115 69.7044 45.9443 70.7295 45.4854 71.6475C45.0264 72.5654 44.5521 73.4069 44.0625 74.1719C43.5729 74.9368 43.0986 75.7324 42.6396 76.5586C42.1807 77.3848 41.8288 78.2415 41.584 79.1289C41.3392 80.0163 41.1862 81.0566 41.125 82.25C41.125 83.0762 41.278 83.8411 41.584 84.5449C41.89 85.2487 42.3031 85.8607 42.8232 86.3809C43.3434 86.901 43.9707 87.3294 44.7051 87.666C45.4395 88.0026 46.2044 88.1556 47 88.125ZM23.5 29.375C24.3262 29.375 25.0911 29.528 25.7949 29.834C26.4987 30.14 27.1107 30.5531 27.6309 31.0732C28.151 31.5934 28.5794 32.2207 28.916 32.9551C29.2526 33.6895 29.4056 34.4544 29.375 35.25C29.375 36.0762 29.222 36.8411 28.916 37.5449C28.61 38.2487 28.1969 38.8607 27.6768 39.3809C27.1566 39.901 26.5293 40.3294 25.7949 40.666C25.0605 41.0026 24.2956 41.1556 23.5 41.125C22.6738 41.125 21.9089 40.972 21.2051 40.666C20.5013 40.36 19.8893 39.9469 19.3691 39.4268C18.849 38.9066 18.4206 38.2793 18.084 37.5449C17.7474 36.8105 17.5944 36.0456 17.625 35.25C17.625 34.4238 17.778 33.6589 18.084 32.9551C18.39 32.2513 18.8031 31.6393 19.3232 31.1191C19.8434 30.599 20.4707 30.1706 21.2051 29.834C21.9395 29.4974 22.7044 29.3444 23.5 29.375ZM41.125 17.625C41.9512 17.625 42.7161 17.778 43.4199 18.084C44.1237 18.39 44.7357 18.8031 45.2559 19.3232C45.776 19.8434 46.2044 20.4707 46.541 21.2051C46.8776 21.9395 47.0306 22.7044 47 23.5C47 24.3262 46.847 25.0911 46.541 25.7949C46.235 26.4987 45.8219 27.1107 45.3018 27.6309C44.7816 28.151 44.1543 28.5794 43.4199 28.916C42.6855 29.2526 41.9206 29.4056 41.125 29.375C40.2988 29.375 39.5339 29.222 38.8301 28.916C38.1263 28.61 37.5143 28.1969 36.9941 27.6768C36.474 27.1566 36.0456 26.5293 35.709 25.7949C35.3724 25.0605 35.2194 24.2956 35.25 23.5C35.25 22.6738 35.403 21.9089 35.709 21.2051C36.015 20.5013 36.4281 19.8893 36.9482 19.3691C37.4684 18.849 38.0957 18.4206 38.8301 18.084C39.5645 17.7474 40.3294 17.5944 41.125 17.625ZM64.625 35.25C63.7988 35.25 63.0339 35.097 62.3301 34.791C61.6263 34.485 61.0143 34.0719 60.4941 33.5518C59.974 33.0316 59.5456 32.4043 59.209 31.6699C58.8724 30.9355 58.7194 30.1706 58.75 29.375C58.75 28.5488 58.903 27.7839 59.209 27.0801C59.515 26.3763 59.9281 25.7643 60.4482 25.2441C60.9684 24.724 61.5957 24.2956 62.3301 23.959C63.0645 23.6224 63.8294 23.4694 64.625 23.5C65.4512 23.5 66.2161 23.653 66.9199 23.959C67.6237 24.265 68.2357 24.6781 68.7559 25.1982C69.276 25.7184 69.7044 26.3457 70.041 27.0801C70.3776 27.8145 70.5306 28.5794 70.5 29.375C70.5 30.2012 70.347 30.9661 70.041 31.6699C69.735 32.3737 69.3219 32.9857 68.8018 33.5059C68.2816 34.026 67.6543 34.4544 66.9199 34.791C66.1855 35.1276 65.4206 35.2806 64.625 35.25ZM70.5 47C71.3262 47 72.0911 47.153 72.7949 47.459C73.4987 47.765 74.1107 48.1781 74.6309 48.6982C75.151 49.2184 75.5794 49.8457 75.916 50.5801C76.2526 51.3145 76.4056 52.0794 76.375 52.875C76.375 53.7012 76.222 54.4661 75.916 55.1699C75.61 55.8737 75.1969 56.4857 74.6768 57.0059C74.1566 57.526 73.5293 57.9544 72.7949 58.291C72.0605 58.6276 71.2956 58.7806 70.5 58.75C69.6738 58.75 68.9089 58.597 68.2051 58.291C67.5013 57.985 66.8893 57.5719 66.3691 57.0518C65.849 56.5316 65.4206 55.9043 65.084 55.1699C64.7474 54.4355 64.5944 53.6706 64.625 52.875C64.625 52.0488 64.778 51.2839 65.084 50.5801C65.39 49.8763 65.8031 49.2643 66.3232 48.7441C66.8434 48.224 67.4707 47.7956 68.2051 47.459C68.9395 47.1224 69.7044 46.9694 70.5 47ZM58.75 64.625C59.5762 64.625 60.3411 64.778 61.0449 65.084C61.7487 65.39 62.3607 65.8031 62.8809 66.3232C63.401 66.8434 63.8294 67.4707 64.166 68.2051C64.5026 68.9395 64.6556 69.7044 64.625 70.5C64.625 71.3262 64.472 72.0911 64.166 72.7949C63.86 73.4987 63.4469 74.1107 62.9268 74.6309C62.4066 75.151 61.7793 75.5794 61.0449 75.916C60.3105 76.2526 59.5456 76.4056 58.75 76.375C57.9238 76.375 57.1589 76.222 56.4551 75.916C55.7513 75.61 55.1393 75.1969 54.6191 74.6768C54.099 74.1566 53.6706 73.5293 53.334 72.7949C52.9974 72.0605 52.8444 71.2956 52.875 70.5C52.875 69.6738 53.028 68.9089 53.334 68.2051C53.64 67.5013 54.0531 66.8893 54.5732 66.3691C55.0934 65.849 55.7207 65.4206 56.4551 65.084C57.1895 64.7474 57.9544 64.5944 58.75 64.625Z" fill="#FFF5EC"/>
</g>
<defs>
<clipPath id="clip0_238_2">
<rect width="94" height="94" fill="white"/>
</clipPath>
</defs>
</svg>
